# xmcd
#
# Track frame offsets:
#	150
#	13674
#	29450
#	41115
#	56137
#	72913
#	91740
#	104849
#	122967
#	136345
#	150134
#	162404
#	176295
#	189109
#	207968
#	218791
#	235770
#	248624
#	264946
#	278043
#	291494
#	310475
#	322742
#
# Disc length: 4479 seconds
#
# Revision: 1
# Processed by: cddbd v1.5.2PL0 Copyright (c) Steve Scherf et al.
# Submitted via: audiograbber 1.83.01
#
DISCID=44117d17
DTITLE=Stompin' Tom Connors - Sings Canadian History
DYEAR=1900
DGENRE=
TTITLE0=Erika Nordby, (Canada's Miracle Child)
TTITLE1="Wop" May
TTITLE2=Bridge Came Tumbling Down
TTITLE3=Marten Hartwell Story
TTITLE4=Paddle Wheeler
TTITLE5=Cowboy, Johhny Ware
TTITLE6=Tribute To Wilf Carter
TTITLE7=Don Messner Story
TTITLE8=Confederation Bridge
TTITLE9=Sable Island
TTITLE10=Wreck Of The Tammy Anne
TTITLE11=Curse Of The Marc Guylaine
TTITLE12=Bluenose
TTITLE13=Black Donnelly's Massacre
TTITLE14=Jenny Donnelly
TTITLE15=How The Mountain Came Down
TTITLE16=The Last Fatal Duel
TTITLE17=Big Joe Mufferaw
TTITLE18=Fire In The Mine
TTITLE19=Reesor Crossing Tragedy
TTITLE20=Horse Called Farmer
TTITLE21=Blue Berets
TTITLE22=Name Of The Capitals
EXTD=
EXTT0=
EXTT1=
EXTT2=
EXTT3=
EXTT4=
EXTT5=
EXTT6=
EXTT7=
EXTT8=
EXTT9=
EXTT10=
EXTT11=
EXTT12=
EXTT13=
EXTT14=
EXTT15=
EXTT16=
EXTT17=
EXTT18=
EXTT19=
EXTT20=
EXTT21=
EXTT22=
PLAYORDER=
